<svg width="12" height="16" viewBox="0 0 12 16" fill="none" xmlns="http://www.w3.org/2000/svg">
<path d="M4.00363 2.90152C3.99319 2.42743 4.14979 2.00269 4.4108 1.66575C4.78286 1.18406 5.36753 0.882713 5.97925 0.87512C6.61184 0.868001 7.21549 1.17884 7.59514 1.67856C7.59562 1.67904 7.59562 1.67951 7.59562 1.67998C7.84477 2.00838 7.9971 2.41888 7.99663 2.87352C7.98476 3.96502 7.13814 4.85104 6.02813 4.87097C4.97364 4.88948 4.02973 4.07085 4.00363 2.90152Z" fill="#83B1FF"/>
<path d="M10.601 9.86863C10.407 9.84253 10.2465 9.75141 10.1089 9.61047C9.83225 9.3281 9.55321 9.0481 9.27416 8.76858C9.27416 8.76858 9.27274 8.76906 9.27179 8.76953C9.22813 8.7254 9.18399 8.68174 9.14033 8.6376C8.84183 8.33863 8.54143 8.04107 8.24245 7.74257C8.21967 7.72027 8.19974 7.69511 8.17696 7.67281C8.17412 7.66996 8.17174 7.66617 8.1689 7.66189C8.1689 7.66189 8.1689 7.66142 8.16842 7.66142C8.16368 7.65525 8.15846 7.65003 8.15276 7.64434C8.15229 7.64386 8.15181 7.64339 8.15134 7.64244H8.15086C8.1409 7.6301 8.13425 7.60684 8.1148 7.61539C8.09676 7.62345 8.10578 7.64718 8.10578 7.66379C8.10578 7.91057 8.01181 8.73679 8.01181 8.9176C8.01181 8.98119 7.97622 9.03956 7.91975 9.06851C7.49406 9.28444 6.85672 9.55779 6.00013 9.53738C5.26218 9.51982 4.48911 9.23841 4.08905 9.06471C4.02688 9.03766 3.98607 8.97739 3.98607 8.90905C3.98607 8.53984 3.89258 7.91864 3.89258 7.70983C3.89305 7.68088 3.89258 7.65193 3.89258 7.62298C3.88736 7.62061 3.88214 7.61823 3.87692 7.61586C3.77536 7.73735 3.65482 7.83843 3.54377 7.94996C3.28513 8.21002 3.02602 8.46961 2.76643 8.72919C2.75314 8.74248 2.74033 8.7553 2.72752 8.76858H2.72704C2.49688 8.99922 2.26576 9.23034 2.0356 9.46145C1.9478 9.54924 1.86713 9.64463 1.7651 9.71677C1.50551 9.899 1.22789 9.93317 0.945994 9.78605C0.669322 9.64274 0.52885 9.40261 0.525054 9.09034C0.522681 8.8839 0.601459 8.70594 0.746676 8.5593C1.18992 8.11273 1.63317 7.66664 2.07736 7.22102C2.48359 6.81337 2.88792 6.40334 3.29889 6.00044C3.31266 5.98668 3.32642 5.97339 3.34018 5.95962C3.34113 5.9582 3.34255 5.95725 3.3435 5.95583C3.43225 5.85949 3.52574 5.766 3.62065 5.67963H3.62113C3.62967 5.67109 3.63821 5.6635 3.64675 5.6559C3.77109 5.54533 3.92058 5.42716 4.08952 5.33225C4.17494 5.28432 4.28742 5.22974 4.4203 5.19035C4.42267 5.1894 4.42552 5.18893 4.42789 5.18798C4.53941 5.15523 4.66517 5.13293 4.80185 5.13293H7.19746C7.33603 5.13293 7.46369 5.15571 7.57616 5.1894C7.57901 5.19035 7.58233 5.1913 7.58518 5.19225C7.58565 5.19225 7.58565 5.19273 7.58613 5.19273C7.71616 5.23164 7.82626 5.28527 7.91026 5.33225C8.06402 5.41909 8.20259 5.52492 8.31981 5.62743C8.32076 5.62838 8.32218 5.62933 8.32313 5.63028C8.3331 5.63882 8.34259 5.64736 8.35255 5.6559C8.48591 5.77454 8.61499 5.9079 8.73553 6.04362C8.73553 6.04362 8.73584 6.04394 8.73648 6.04457C8.75593 6.0645 8.77539 6.08396 8.79485 6.10342C9.59449 6.90116 10.3927 7.70081 11.1919 8.49903C11.3181 8.62479 11.423 8.76241 11.4591 8.94228C11.563 9.4586 11.1202 9.93839 10.601 9.86863Z" fill="#83B1FF"/>
<path d="M9.51856 11.7465C9.60209 11.9392 9.63103 12.1432 9.62629 12.3525C9.62107 12.6268 9.53944 12.8831 9.43646 13.1336C9.27464 13.5285 9.08101 13.9062 8.84942 14.2641C8.708 14.4828 8.55614 14.694 8.36299 14.8715C8.27567 14.9517 8.17886 15.0191 8.07161 15.0713C7.83006 15.1885 7.5064 15.1287 7.44186 14.7429C7.40437 14.5194 7.42905 14.2987 7.47033 14.0795C7.47603 14.0505 7.48172 14.0211 7.48742 13.9921C7.58091 13.5304 7.72328 13.0829 7.91595 12.652C7.93351 12.6126 7.92165 12.5983 7.88985 12.5794C7.52111 12.362 7.16804 12.1214 6.83062 11.8585C6.75753 11.8015 6.68825 11.7398 6.61517 11.6834C6.57767 11.6544 6.57767 11.6321 6.60852 11.5975C6.76893 11.4209 6.93834 11.2529 7.1016 11.0792C7.40247 10.7589 7.70002 10.4357 7.99948 10.114C8.01798 10.094 8.03744 10.0741 8.05737 10.0547C8.08347 10.0281 8.11052 10.002 8.13663 9.97493C8.15513 9.95595 8.16747 9.95358 8.18883 9.97493C8.44082 10.225 8.68902 10.4789 8.90495 10.7613C9.14081 11.0693 9.36196 11.3887 9.51856 11.7465Z" fill="#83B1FF"/>
<path d="M5.39885 11.6127C5.42116 11.6378 5.42116 11.6549 5.39078 11.6791C4.99547 11.9966 4.58355 12.2899 4.15027 12.5537C4.09585 12.5869 4.08098 12.6335 4.10566 12.6932C4.25752 13.0591 4.38233 13.434 4.47345 13.8194C4.48768 13.8787 4.50097 13.9376 4.51284 13.9969C4.55697 14.2138 4.58497 14.4321 4.56741 14.6556C4.56077 14.7386 4.54606 14.8193 4.50999 14.8952C4.43548 15.0537 4.32538 15.1235 4.06627 15.1235C3.95949 15.1202 3.80953 15.0224 3.67285 14.9043C3.44554 14.7078 3.27517 14.4634 3.11619 14.2109C2.85423 13.7947 2.6326 13.3576 2.47267 12.8926C2.30088 12.3909 2.35166 11.9159 2.62501 11.4523C2.94961 10.9022 3.35205 10.4196 3.80858 9.9773C3.84038 9.94646 3.85509 9.96592 3.87454 9.98632C3.87739 9.98964 3.88071 9.99249 3.88404 9.99581C3.98702 10.1035 4.09095 10.2108 4.19298 10.3199C4.58355 10.7371 4.97316 11.1552 5.36326 11.5728C5.3756 11.5856 5.38699 11.5994 5.39885 11.6127Z" fill="#83B1FF"/>
</svg>
