<svg width="10" height="16" viewBox="0 0 10 16" fill="none" xmlns="http://www.w3.org/2000/svg">
<path d="M7.29737 9.09158C6.53201 9.09158 5.91163 9.71202 5.91163 10.4773H7.02044C7.02044 10.3244 7.14441 10.2004 7.29737 10.2004H7.34444C7.52341 10.2004 7.66844 10.3455 7.66844 10.5244V14.9456C7.66844 15.2518 7.91665 15.5 8.22285 15.5C8.52905 15.5 8.77726 15.2518 8.77726 14.9456V10.5244C8.77726 9.73308 8.13575 9.09158 7.34444 9.09158H7.29737Z" fill="#282828"/>
<path d="M7.29737 9.09158C6.53201 9.09158 5.91163 9.71202 5.91163 10.4773H7.02044C7.02044 10.3244 7.14441 10.2004 7.29737 10.2004H7.34444C7.52341 10.2004 7.66844 10.3455 7.66844 10.5244V14.9456C7.66844 15.2518 7.91665 15.5 8.22285 15.5C8.52905 15.5 8.77726 15.2518 8.77726 14.9456V10.5244C8.77726 9.73308 8.13575 9.09158 7.34444 9.09158H7.29737Z" fill="white" fill-opacity="0.48"/>
<path d="M1.3572 10.9757L1.39507 11.0449V14.3602C1.39507 14.9726 1.89149 15.4691 2.50389 15.4691C3.11629 15.4691 3.61271 14.9726 3.61271 14.3602V10.7566C3.61271 9.53804 3.89618 8.36824 4.26658 7.38904L4.38594 7.85962C4.49139 8.27532 4.82709 8.59294 5.24794 8.67527L7.2808 9.07273C7.88177 9.19026 8.46429 8.79829 8.58177 8.19731C8.69931 7.59633 8.30734 7.01382 7.70636 6.89634L6.36286 6.6336L5.7224 4.10827C5.59766 3.61645 5.15502 3.27205 4.64763 3.27205C2.98412 3.27205 1.86848 4.2961 1.22498 5.31228C0.595778 6.30589 0.286251 7.47974 0.286251 8.26174C0.286251 8.486 0.337036 8.69445 0.376565 8.83272C0.420918 8.9879 0.478742 9.14713 0.538785 9.29726C0.659147 9.59809 0.813051 9.92363 0.957696 10.2129C1.10401 10.5055 1.24921 10.7777 1.3572 10.9757Z" fill="#282828"/>
<path d="M1.3572 10.9757L1.39507 11.0449V14.3602C1.39507 14.9726 1.89149 15.4691 2.50389 15.4691C3.11629 15.4691 3.61271 14.9726 3.61271 14.3602V10.7566C3.61271 9.53804 3.89618 8.36824 4.26658 7.38904L4.38594 7.85962C4.49139 8.27532 4.82709 8.59294 5.24794 8.67527L7.2808 9.07273C7.88177 9.19026 8.46429 8.79829 8.58177 8.19731C8.69931 7.59633 8.30734 7.01382 7.70636 6.89634L6.36286 6.6336L5.7224 4.10827C5.59766 3.61645 5.15502 3.27205 4.64763 3.27205C2.98412 3.27205 1.86848 4.2961 1.22498 5.31228C0.595778 6.30589 0.286251 7.47974 0.286251 8.26174C0.286251 8.486 0.337036 8.69445 0.376565 8.83272C0.420918 8.9879 0.478742 9.14713 0.538785 9.29726C0.659147 9.59809 0.813051 9.92363 0.957696 10.2129C1.10401 10.5055 1.24921 10.7777 1.3572 10.9757Z" fill="white" fill-opacity="0.48"/>
<path d="M7.77078 4.38087C8.84246 4.38087 9.71122 3.51211 9.71122 2.44043C9.71122 1.36876 8.84246 0.5 7.77078 0.5C6.69911 0.5 5.83035 1.36876 5.83035 2.44043C5.83035 3.51211 6.69911 4.38087 7.77078 4.38087Z" fill="#282828"/>
<path d="M7.77078 4.38087C8.84246 4.38087 9.71122 3.51211 9.71122 2.44043C9.71122 1.36876 8.84246 0.5 7.77078 0.5C6.69911 0.5 5.83035 1.36876 5.83035 2.44043C5.83035 3.51211 6.69911 4.38087 7.77078 4.38087Z" fill="white" fill-opacity="0.48"/>
</svg>
