<svg width="12" height="16" viewBox="0 0 12 16" fill="none" xmlns="http://www.w3.org/2000/svg">
<path fill-rule="evenodd" clip-rule="evenodd" d="M6.01249 5.375C7.33733 5.37143 8.4375 4.26113 8.4375 2.92769C8.4375 1.59604 7.32128 0.450041 5.98039 0.501807C4.70904 0.448255 3.55894 1.59247 3.56251 2.93483C3.56607 4.25042 4.6395 5.37678 6.01249 5.375ZM10.3442 8.32206C10.8397 9.06431 11.314 9.81853 11.7231 10.6104C11.94 11.0328 12.0917 11.4672 11.9365 11.9427C11.8042 12.348 11.5062 12.6387 11.1836 12.9038C10.5364 13.4374 9.83461 13.9009 9.12046 14.3421C8.61086 14.6568 7.97606 14.5764 7.53523 14.1643C7.17375 13.8274 7.08029 13.2065 7.33245 12.7738C7.4118 12.637 7.51231 12.5139 7.63927 12.413C7.72367 12.3448 7.80994 12.2783 7.9142 12.1981C7.95369 12.1676 7.99577 12.1352 8.04131 12.1C7.52818 11.9581 7.07148 11.8229 6.66415 11.5596C5.97469 11.1166 5.4739 10.5368 5.17766 9.78604C4.95196 9.21139 4.30305 9.00787 3.8728 9.37729C3.56775 9.63895 3.57304 9.98613 3.67002 10.3316C3.80756 10.819 4.1038 11.2226 4.41591 11.6126C4.53229 11.758 4.52523 11.8127 4.34537 11.8657C4.12902 11.9297 3.91436 11.9987 3.68612 12.072C3.58511 12.1044 3.48144 12.1377 3.37378 12.1718C3.80227 12.4814 4.23428 12.6969 4.69451 12.8696C4.97278 12.9738 5.2618 13.0332 5.55066 13.0925C5.63155 13.1091 5.71244 13.1257 5.79306 13.1433C6.53895 13.3074 6.78406 13.9402 6.73821 14.4123C6.67826 15.0297 6.13691 15.5034 5.48625 15.5C4.72978 15.4949 4.02268 15.264 3.3438 14.9681C2.41806 14.5662 1.57871 14.0206 0.873381 13.3057C0.362016 12.7858 -0.0453124 12.1975 0.00406075 11.433C0.0393273 10.8823 0.28972 10.3932 0.582432 9.9297C1.18725 8.97538 1.84321 8.05526 2.59792 7.20356C2.9735 6.78284 3.45842 6.59642 4.02092 6.5434C4.61869 6.49038 5.21293 6.51262 5.8107 6.53998C6.12678 6.55422 6.44286 6.53851 6.75916 6.52279C7.08867 6.50642 7.4184 6.49003 7.74859 6.50749C8.47332 6.54511 9.17513 6.66825 9.64594 7.27881C9.81125 7.49333 9.95666 7.72143 10.1022 7.94971C10.1817 8.0745 10.2613 8.19935 10.3442 8.32206ZM6.21979 9.93654C6.18452 10.8447 7.03621 11.6759 7.97959 11.6844C8.9459 11.693 9.79582 10.8943 9.80111 9.97074C9.8064 9.03524 8.99527 8.20919 8.02544 8.21261C7.00976 8.21774 6.25858 8.96341 6.21979 9.93654Z" fill="#DF3871"/>
</svg>
