<svg width="14" height="16" viewBox="0 0 14 16" fill="none" xmlns="http://www.w3.org/2000/svg">
<path d="M7.84449 0.5C7.8874 0.5 7.9139 0.546695 7.89245 0.583295L7.36239 1.48944C7.34473 1.51846 7.35861 1.55759 7.39016 1.56895L8.09185 1.83902C8.12719 1.8529 8.13602 1.89708 8.10952 1.92358L6.90175 3.11747C6.88661 3.13261 6.86136 3.11494 6.8702 3.09601L7.31191 2.07502C7.32832 2.03842 7.30055 1.99678 7.26143 1.99678H6.60012C6.5875 1.99678 6.57741 1.98416 6.58119 1.97154L6.99514 0.540385C7.00145 0.516406 7.02417 0.5 7.04815 0.5H7.84449Z" fill="#DF3871"/>
<path d="M10.7964 1.02501L9.77667 2.55712C9.7691 2.56848 9.77541 2.58363 9.78803 2.58741L10.5591 2.75905C10.6008 2.76788 10.6172 2.81963 10.5882 2.85118L9.62523 3.89614C9.61135 3.91129 9.62775 3.93527 9.64668 3.9277L11.5776 3.09475C11.6129 3.07961 11.6192 3.03165 11.589 3.00767L10.857 2.42587C10.8305 2.40442 10.8292 2.36403 10.8545 2.34005L11.8414 1.47177C11.8729 1.444 11.8641 1.39352 11.825 1.37838L10.8633 1.00734C10.8393 0.998505 10.8115 1.00734 10.7964 1.02879V1.02501Z" fill="#DF3871"/>
<path d="M3.42483 1.02501L4.44456 2.55712C4.45213 2.56848 4.44582 2.58363 4.4332 2.58741L3.6621 2.75905C3.62045 2.76788 3.60404 2.81963 3.63307 2.85118L4.59601 3.89614C4.60989 3.91129 4.59348 3.93527 4.57455 3.9277L2.64363 3.09475C2.6083 3.07961 2.60199 3.03165 2.63227 3.00767L3.36426 2.42587C3.39076 2.40442 3.39202 2.36403 3.36678 2.34005L2.37987 1.47177C2.34832 1.444 2.35715 1.39352 2.39627 1.37838L3.35795 1.00734C3.38193 0.998505 3.40969 1.00734 3.42483 1.02879V1.02501Z" fill="#DF3871"/>
<path d="M12.9961 11.5012C12.0319 11.7511 11.0589 11.9593 10.0783 12.1335C10.0556 12.1373 10.0316 12.1423 10.0177 12.1587C10.0001 12.1776 10.0001 12.2067 10.0013 12.2332C10.0253 12.9563 10.0796 13.7287 9.71862 14.3875C8.91722 15.8464 6.74273 15.6445 5.45672 15.0576C4.48747 14.6146 4.1707 13.4447 3.99023 12.4818C3.97256 12.3884 3.95615 12.2937 3.9082 12.2117C3.74287 11.9341 3.07525 11.9568 2.79255 11.9038C2.42404 11.8356 2.05678 11.7523 1.68953 11.6779C1.28316 11.5946 0.850276 11.5037 0.515836 11.2437C0.181396 10.9838 0.0362617 10.4701 0.141011 10.0536C0.300028 9.41125 0.949977 9.02002 1.59235 9.17904C2.13756 9.31407 2.64868 9.43144 3.1333 9.53367C4.58717 9.83656 5.80378 9.98674 7.00397 9.99179C8.30009 9.99684 9.61639 9.83151 11.2268 9.46678C11.5978 9.38349 11.9852 9.28883 12.3916 9.18282C13.0327 9.01497 13.6877 9.39989 13.8543 10.0397C14.0209 10.6809 13.6372 11.3359 12.9961 11.5024V11.5012Z" fill="#DF3871"/>
<path d="M4.60105 6.45177C4.60105 5.58601 5.06044 4.82627 5.74951 4.40475C6.11298 4.18263 6.54081 4.0539 6.99893 4.0539C7.66654 4.0539 8.27106 4.32776 8.70646 4.76948C9.13303 5.20109 9.3968 5.79677 9.3968 6.45177C9.3968 7.77691 8.3228 8.84965 6.99893 8.84965C5.67505 8.84965 4.60105 7.77691 4.60105 6.45177Z" fill="#DF3871"/>
</svg>
