<svg width="10" height="16" viewBox="0 0 10 16" fill="none" xmlns="http://www.w3.org/2000/svg">
<path fill-rule="evenodd" clip-rule="evenodd" d="M6.6875 2.1875C6.6875 3.11949 5.93199 3.875 5 3.875C4.06805 3.875 3.3125 3.11949 3.3125 2.1875C3.3125 1.25552 4.06805 0.5 5 0.5C5.93199 0.5 6.6875 1.25552 6.6875 2.1875ZM2.9375 6.875C2.9375 7.82398 2.06157 11.017 1.74087 12.1542C1.67975 12.3709 1.82165 12.5927 2.04436 12.6262C4.28952 12.9638 5.71212 12.9527 7.9571 12.6239C8.17933 12.5914 8.32254 12.3722 8.26329 12.1556C7.94619 10.9962 7.06344 7.69535 7.0625 6.87628V6.875V6.31055C7.2116 6.49831 7.3508 6.77754 7.4363 7.07945L7.44455 7.10844C7.49671 7.2926 7.51632 7.36182 7.53477 7.43139C7.54588 7.47331 7.55656 7.51531 7.5737 7.58262C7.62192 7.77219 7.72119 8.16241 8.02471 9.31588C8.13013 9.71645 8.5403 9.95574 8.94088 9.85029C9.34145 9.74487 9.58074 9.3347 9.47533 8.93412C9.18657 7.83691 9.0839 7.43435 9.03114 7.2275C8.97703 7.01544 8.97541 7.0091 8.87953 6.67055C8.75026 6.21436 8.5301 5.74475 8.23291 5.37238C7.95249 5.02096 7.493 4.625 6.875 4.625H5H3.125C2.507 4.625 2.04755 5.02096 1.76709 5.37238C1.4699 5.74475 1.24974 6.21436 1.12051 6.67055C1.02459 7.0091 1.02297 7.0154 0.9689 7.22746C0.916137 7.43431 0.813462 7.83684 0.524712 8.93412C0.419262 9.3347 0.65855 9.74487 1.05912 9.85029C1.4597 9.95574 1.86987 9.71645 1.97532 9.31588C2.27885 8.16241 2.37811 7.77219 2.42634 7.58262C2.44344 7.51531 2.45412 7.47327 2.46526 7.43139C2.48367 7.36186 2.50332 7.2926 2.55549 7.10848L2.5637 7.07945C2.64924 6.77754 2.7884 6.49828 2.9375 6.31055V6.875ZM2.9375 14.8954V13.4639C3.46606 13.5422 3.95506 13.5917 4.43281 13.613L4.0427 15.0434C3.96856 15.3153 3.70467 15.4903 3.42534 15.4529C3.14604 15.4155 2.9375 15.1772 2.9375 14.8954ZM5.95734 15.0434L5.56655 13.6106C6.04452 13.5874 6.53375 13.5366 7.0625 13.4587V14.8954C7.0625 15.1772 6.854 15.4155 6.57466 15.4529C6.29536 15.4903 6.03148 15.3153 5.95734 15.0434Z" fill="#C879FF"/>
</svg>
